<svg id="visual" viewBox="0 0 900 300" width="900" height="300" xmlns="http://www.w3.org/2000/svg" xmlns:xlink="http://www.w3.org/1999/xlink" version="1.1"><rect x="0" y="0" width="900" height="300" fill="#0f0f10"></rect><path d="M0 103L25 104.3C50 105.7 100 108.3 150 108.5C200 108.7 250 106.3 300 109.2C350 112 400 120 450 124.3C500 128.7 550 129.3 600 130.7C650 132 700 134 750 132.8C800 131.7 850 127.3 875 125.2L900 123L900 0L875 0C850 0 800 0 750 0C700 0 650 0 600 0C550 0 500 0 450 0C400 0 350 0 300 0C250 0 200 0 150 0C100 0 50 0 25 0L0 0Z" fill="#fa7268"></path><path d="M0 92L25 92.3C50 92.7 100 93.3 150 93.2C200 93 250 92 300 92.7C350 93.3 400 95.7 450 96.7C500 97.7 550 97.3 600 94.7C650 92 700 87 750 88.2C800 89.3 850 96.7 875 100.3L900 104L900 0L875 0C850 0 800 0 750 0C700 0 650 0 600 0C550 0 500 0 450 0C400 0 350 0 300 0C250 0 200 0 150 0C100 0 50 0 25 0L0 0Z" fill="#f3665b"></path><path d="M0 83L25 80.7C50 78.3 100 73.7 150 70.8C200 68 250 67 300 66.5C350 66 400 66 450 67.5C500 69 550 72 600 73.3C650 74.7 700 74.3 750 73.7C800 73 850 72 875 71.5L900 71L900 0L875 0C850 0 800 0 750 0C700 0 650 0 600 0C550 0 500 0 450 0C400 0 350 0 300 0C250 0 200 0 150 0C100 0 50 0 25 0L0 0Z" fill="#ec594d"></path><path d="M0 45L25 47C50 49 100 53 150 54.5C200 56 250 55 300 55.5C350 56 400 58 450 57C500 56 550 52 600 49.3C650 46.7 700 45.3 750 46.3C800 47.3 850 50.7 875 52.3L900 54L900 0L875 0C850 0 800 0 750 0C700 0 650 0 600 0C550 0 500 0 450 0C400 0 350 0 300 0C250 0 200 0 150 0C100 0 50 0 25 0L0 0Z" fill="#e54c3f"></path><path d="M0 32L25 32C50 32 100 32 150 32C200 32 250 32 300 30.2C350 28.3 400 24.7 450 25C500 25.3 550 29.7 600 31.7C650 33.7 700 33.3 750 33C800 32.7 850 32.3 875 32.2L900 32L900 0L875 0C850 0 800 0 750 0C700 0 650 0 600 0C550 0 500 0 450 0C400 0 350 0 300 0C250 0 200 0 150 0C100 0 50 0 25 0L0 0Z" fill="#dd3f31"></path></svg>