<svg id="visual" viewBox="0 0 900 300" width="900" height="300" xmlns="http://www.w3.org/2000/svg" xmlns:xlink="http://www.w3.org/1999/xlink" version="1.1"><path d="M0 49L100 76L200 88L300 106L400 76L500 64L600 61L700 82L800 79L900 58L900 0L800 0L700 0L600 0L500 0L400 0L300 0L200 0L100 0L0 0Z" fill="#3c31dd"></path><path d="M0 82L100 103L200 139L300 139L400 109L500 91L600 103L700 127L800 127L900 103L900 56L800 77L700 80L600 59L500 62L400 74L300 104L200 86L100 74L0 47Z" fill="#a111c1"></path><path d="M0 163L100 184L200 187L300 196L400 166L500 151L600 148L700 187L800 181L900 169L900 101L800 125L700 125L600 101L500 89L400 107L300 137L200 137L100 101L0 80Z" fill="#d100a4"></path><path d="M0 184L100 208L200 220L300 235L400 199L500 190L600 181L700 229L800 208L900 193L900 167L800 179L700 185L600 146L500 149L400 164L300 194L200 185L100 182L0 161Z" fill="#ee0086"></path><path d="M0 301L100 301L200 301L300 301L400 301L500 301L600 301L700 301L800 301L900 301L900 191L800 206L700 227L600 179L500 188L400 197L300 233L200 218L100 206L0 182Z" fill="#ff0066"></path></svg>