<svg id="visual" viewBox="0 0 900 300" width="900" height="300" xmlns="http://www.w3.org/2000/svg" xmlns:xlink="http://www.w3.org/1999/xlink" version="1.1"><rect x="0" y="0" width="900" height="300" fill="#f0e68c"></rect><path d="M0 53L100 95L200 125L300 92L400 68L500 124L600 119L700 87L800 137L900 67L900 301L800 301L700 301L600 301L500 301L400 301L300 301L200 301L100 301L0 301Z" fill="#f0e68c"></path><path d="M0 121L100 114L200 136L300 144L400 99L500 156L600 158L700 158L800 104L900 141L900 301L800 301L700 301L600 301L500 301L400 301L300 301L200 301L100 301L0 301Z" fill="#edca6b"></path><path d="M0 139L100 161L200 179L300 187L400 177L500 162L600 188L700 138L800 150L900 124L900 301L800 301L700 301L600 301L500 301L400 301L300 301L200 301L100 301L0 301Z" fill="#ebac4f"></path><path d="M0 212L100 216L200 221L300 180L400 211L500 185L600 187L700 168L800 176L900 202L900 301L800 301L700 301L600 301L500 301L400 301L300 301L200 301L100 301L0 301Z" fill="#e98c3b"></path><path d="M0 245L100 199L200 220L300 208L400 232L500 214L600 233L700 247L800 250L900 248L900 301L800 301L700 301L600 301L500 301L400 301L300 301L200 301L100 301L0 301Z" fill="#e46931"></path><path d="M0 269L100 243L200 243L300 262L400 248L500 247L600 257L700 261L800 252L900 268L900 301L800 301L700 301L600 301L500 301L400 301L300 301L200 301L100 301L0 301Z" fill="#dd3f31"></path></svg>