<svg id="visual" viewBox="0 0 900 300" width="900" height="300" xmlns="http://www.w3.org/2000/svg" xmlns:xlink="http://www.w3.org/1999/xlink" version="1.1"><path d="M0 49L6.5 56C13 63 26 77 39 81.5C52 86 65 81 78 75.5C91 70 104 64 117.2 61.5C130.3 59 143.7 60 156.8 64.5C170 69 183 77 196 78.5C209 80 222 75 235 82.5C248 90 261 110 274 107C287 104 300 78 313 64.5C326 51 339 50 352 59.5C365 69 378 89 391 96C404 103 417 97 430.2 88C443.3 79 456.7 67 469.8 67.5C483 68 496 81 509 85C522 89 535 84 548 79.5C561 75 574 71 587 74C600 77 613 87 626 94.5C639 102 652 107 665 105.5C678 104 691 96 704 87.5C717 79 730 70 743.2 63C756.3 56 769.7 51 782.8 56C796 61 809 76 822 80.5C835 85 848 79 861 78.5C874 78 887 83 893.5 85.5L900 88L900 0L893.5 0C887 0 874 0 861 0C848 0 835 0 822 0C809 0 796 0 782.8 0C769.7 0 756.3 0 743.2 0C730 0 717 0 704 0C691 0 678 0 665 0C652 0 639 0 626 0C613 0 600 0 587 0C574 0 561 0 548 0C535 0 522 0 509 0C496 0 483 0 469.8 0C456.7 0 443.3 0 430.2 0C417 0 404 0 391 0C378 0 365 0 352 0C339 0 326 0 313 0C300 0 287 0 274 0C261 0 248 0 235 0C222 0 209 0 196 0C183 0 170 0 156.8 0C143.7 0 130.3 0 117.2 0C104 0 91 0 78 0C65 0 52 0 39 0C26 0 13 0 6.5 0L0 0Z" fill="#ff0066"></path><path d="M0 76L6.5 84C13 92 26 108 39 116C52 124 65 124 78 116.5C91 109 104 94 117.2 89C130.3 84 143.7 89 156.8 96.5C170 104 183 114 196 115.5C209 117 222 110 235 117.5C248 125 261 147 274 145C287 143 300 117 313 104C326 91 339 91 352 99C365 107 378 123 391 130C404 137 417 135 430.2 128.5C443.3 122 456.7 111 469.8 109.5C483 108 496 116 509 118.5C522 121 535 118 548 112.5C561 107 574 99 587 99.5C600 100 613 109 626 117C639 125 652 132 665 135C678 138 691 137 704 131.5C717 126 730 116 743.2 107.5C756.3 99 769.7 92 782.8 96C796 100 809 115 822 119C835 123 848 116 861 114C874 112 887 115 893.5 116.5L900 118L900 86L893.5 83.5C887 81 874 76 861 76.5C848 77 835 83 822 78.5C809 74 796 59 782.8 54C769.7 49 756.3 54 743.2 61C730 68 717 77 704 85.5C691 94 678 102 665 103.5C652 105 639 100 626 92.5C613 85 600 75 587 72C574 69 561 73 548 77.5C535 82 522 87 509 83C496 79 483 66 469.8 65.5C456.7 65 443.3 77 430.2 86C417 95 404 101 391 94C378 87 365 67 352 57.5C339 48 326 49 313 62.5C300 76 287 102 274 105C261 108 248 88 235 80.5C222 73 209 78 196 76.5C183 75 170 67 156.8 62.5C143.7 58 130.3 57 117.2 59.5C104 62 91 68 78 73.5C65 79 52 84 39 79.5C26 75 13 61 6.5 54L0 47Z" fill="#e40072"></path><path d="M0 190L6.5 189C13 188 26 186 39 188.5C52 191 65 198 78 200C91 202 104 199 117.2 203C130.3 207 143.7 218 156.8 218C170 218 183 207 196 201C209 195 222 194 235 202C248 210 261 227 274 226.5C287 226 300 208 313 199.5C326 191 339 192 352 196.5C365 201 378 209 391 215.5C404 222 417 227 430.2 225C443.3 223 456.7 214 469.8 210C483 206 496 207 509 207C522 207 535 206 548 208C561 210 574 215 587 211.5C600 208 613 196 626 194.5C639 193 652 202 665 206.5C678 211 691 211 704 211C717 211 730 211 743.2 208C756.3 205 769.7 199 782.8 200.5C796 202 809 211 822 212.5C835 214 848 208 861 201C874 194 887 186 893.5 182L900 178L900 116L893.5 114.5C887 113 874 110 861 112C848 114 835 121 822 117C809 113 796 98 782.8 94C769.7 90 756.3 97 743.2 105.5C730 114 717 124 704 129.5C691 135 678 136 665 133C652 130 639 123 626 115C613 107 600 98 587 97.5C574 97 561 105 548 110.5C535 116 522 119 509 116.5C496 114 483 106 469.8 107.5C456.7 109 443.3 120 430.2 126.5C417 133 404 135 391 128C378 121 365 105 352 97C339 89 326 89 313 102C300 115 287 141 274 143C261 145 248 123 235 115.5C222 108 209 115 196 113.5C183 112 170 102 156.8 94.5C143.7 87 130.3 82 117.2 87C104 92 91 107 78 114.5C65 122 52 122 39 114C26 106 13 90 6.5 82L0 74Z" fill="#c6007a"></path><path d="M0 244L6.5 241C13 238 26 232 39 230C52 228 65 230 78 232C91 234 104 236 117.2 239.5C130.3 243 143.7 248 156.8 250C170 252 183 251 196 249.5C209 248 222 246 235 249C248 252 261 260 274 259C287 258 300 248 313 244.5C326 241 339 244 352 246.5C365 249 378 251 391 252.5C404 254 417 255 430.2 254C443.3 253 456.7 250 469.8 250.5C483 251 496 255 509 257.5C522 260 535 261 548 260C561 259 574 256 587 252C600 248 613 243 626 241C639 239 652 240 665 242C678 244 691 247 704 247C717 247 730 244 743.2 241C756.3 238 769.7 235 782.8 236C796 237 809 242 822 244C835 246 848 245 861 242.5C874 240 887 236 893.5 234L900 232L900 176L893.5 180C887 184 874 192 861 199C848 206 835 212 822 210.5C809 209 796 200 782.8 198.5C769.7 197 756.3 203 743.2 206C730 209 717 209 704 209C691 209 678 209 665 204.5C652 200 639 191 626 192.5C613 194 600 206 587 209.5C574 213 561 208 548 206C535 204 522 205 509 205C496 205 483 204 469.8 208C456.7 212 443.3 221 430.2 223C417 225 404 220 391 213.5C378 207 365 199 352 194.5C339 190 326 189 313 197.5C300 206 287 224 274 224.5C261 225 248 208 235 200C222 192 209 193 196 199C183 205 170 216 156.8 216C143.7 216 130.3 205 117.2 201C104 197 91 200 78 198C65 196 52 189 39 186.5C26 184 13 186 6.5 187L0 188Z" fill="#a5007f"></path><path d="M0 301L6.5 301C13 301 26 301 39 301C52 301 65 301 78 301C91 301 104 301 117.2 301C130.3 301 143.7 301 156.8 301C170 301 183 301 196 301C209 301 222 301 235 301C248 301 261 301 274 301C287 301 300 301 313 301C326 301 339 301 352 301C365 301 378 301 391 301C404 301 417 301 430.2 301C443.3 301 456.7 301 469.8 301C483 301 496 301 509 301C522 301 535 301 548 301C561 301 574 301 587 301C600 301 613 301 626 301C639 301 652 301 665 301C678 301 691 301 704 301C717 301 730 301 743.2 301C756.3 301 769.7 301 782.8 301C796 301 809 301 822 301C835 301 848 301 861 301C874 301 887 301 893.5 301L900 301L900 230L893.5 232C887 234 874 238 861 240.5C848 243 835 244 822 242C809 240 796 235 782.8 234C769.7 233 756.3 236 743.2 239C730 242 717 245 704 245C691 245 678 242 665 240C652 238 639 237 626 239C613 241 600 246 587 250C574 254 561 257 548 258C535 259 522 258 509 255.5C496 253 483 249 469.8 248.5C456.7 248 443.3 251 430.2 252C417 253 404 252 391 250.5C378 249 365 247 352 244.5C339 242 326 239 313 242.5C300 246 287 256 274 257C261 258 248 250 235 247C222 244 209 246 196 247.5C183 249 170 250 156.8 248C143.7 246 130.3 241 117.2 237.5C104 234 91 232 78 230C65 228 52 226 39 228C26 230 13 236 6.5 239L0 242Z" fill="#800080"></path></svg>