<svg id="visual" viewBox="0 0 900 300" width="900" height="300" xmlns="http://www.w3.org/2000/svg" xmlns:xlink="http://www.w3.org/1999/xlink" version="1.1"><rect x="0" y="0" width="900" height="300" fill="#32cd32"></rect><path d="M0 143L75 160L150 158L225 130L300 161L375 152L450 156L525 134L600 144L675 131L750 153L825 130L900 161L900 0L825 0L750 0L675 0L600 0L525 0L450 0L375 0L300 0L225 0L150 0L75 0L0 0Z" fill="#adff2f"></path><path d="M0 126L75 111L150 129L225 116L300 137L375 126L450 131L525 146L600 136L675 120L750 123L825 147L900 127L900 0L825 0L750 0L675 0L600 0L525 0L450 0L375 0L300 0L225 0L150 0L75 0L0 0Z" fill="#e0cd00"></path><path d="M0 121L75 97L150 116L225 115L300 99L375 121L450 109L525 117L600 95L675 108L750 104L825 113L900 106L900 0L825 0L750 0L675 0L600 0L525 0L450 0L375 0L300 0L225 0L150 0L75 0L0 0Z" fill="#fa9800"></path><path d="M0 100L75 98L150 85L225 94L300 85L375 81L450 87L525 73L600 103L675 76L750 71L825 87L900 70L900 0L825 0L750 0L675 0L600 0L525 0L450 0L375 0L300 0L225 0L150 0L75 0L0 0Z" fill="#fd5e29"></path><path d="M0 68L75 60L150 75L225 75L300 71L375 49L450 78L525 64L600 47L675 48L750 67L825 59L900 51L900 0L825 0L750 0L675 0L600 0L525 0L450 0L375 0L300 0L225 0L150 0L75 0L0 0Z" fill="#e91c50"></path><path d="M0 59L75 30L150 27L225 44L300 45L375 40L450 56L525 59L600 33L675 31L750 57L825 27L900 55L900 0L825 0L750 0L675 0L600 0L525 0L450 0L375 0L300 0L225 0L150 0L75 0L0 0Z" fill="#bf006e"></path><path d="M0 32L75 10L150 7L225 9L300 36L375 31L450 33L525 31L600 29L675 25L750 18L825 27L900 8L900 0L825 0L750 0L675 0L600 0L525 0L450 0L375 0L300 0L225 0L150 0L75 0L0 0Z" fill="#800080"></path></svg>