<svg id="visual" viewBox="0 0 900 300" width="900" height="300" xmlns="http://www.w3.org/2000/svg" xmlns:xlink="http://www.w3.org/1999/xlink" version="1.1"><rect x="0" y="0" width="900" height="300" fill="#0f0f10"></rect><path d="M0 119L30 121C60 123 120 127 180 138.2C240 149.3 300 167.7 360 175.8C420 184 480 182 540 171.5C600 161 660 142 720 129.2C780 116.3 840 109.7 870 106.3L900 103L900 301L870 301C840 301 780 301 720 301C660 301 600 301 540 301C480 301 420 301 360 301C300 301 240 301 180 301C120 301 60 301 30 301L0 301Z" fill="#3c31dd" stroke-linecap="round" stroke-linejoin="miter"></path></svg>