<svg id="visual" viewBox="0 0 900 300" width="900" height="300" xmlns="http://www.w3.org/2000/svg" xmlns:xlink="http://www.w3.org/1999/xlink" version="1.1"><path d="M0 43L13.7 42.5C27.3 42 54.7 41 82 38.5C109.3 36 136.7 32 163.8 31C191 30 218 32 245.2 32.5C272.3 33 299.7 32 327 33C354.3 34 381.7 37 409 37C436.3 37 463.7 34 491 33.5C518.3 33 545.7 35 573 34.5C600.3 34 627.7 31 654.8 32C682 33 709 38 736.2 37.5C763.3 37 790.7 31 818 29.5C845.3 28 872.7 31 886.3 32.5L900 34L900 0L886.3 0C872.7 0 845.3 0 818 0C790.7 0 763.3 0 736.2 0C709 0 682 0 654.8 0C627.7 0 600.3 0 573 0C545.7 0 518.3 0 491 0C463.7 0 436.3 0 409 0C381.7 0 354.3 0 327 0C299.7 0 272.3 0 245.2 0C218 0 191 0 163.8 0C136.7 0 109.3 0 82 0C54.7 0 27.3 0 13.7 0L0 0Z" fill="#32cd32"></path><path d="M0 85L13.7 86C27.3 87 54.7 89 82 89.5C109.3 90 136.7 89 163.8 89C191 89 218 90 245.2 92.5C272.3 95 299.7 99 327 97C354.3 95 381.7 87 409 82C436.3 77 463.7 75 491 76C518.3 77 545.7 81 573 80.5C600.3 80 627.7 75 654.8 78.5C682 82 709 94 736.2 95C763.3 96 790.7 86 818 85C845.3 84 872.7 92 886.3 96L900 100L900 32L886.3 30.5C872.7 29 845.3 26 818 27.5C790.7 29 763.3 35 736.2 35.5C709 36 682 31 654.8 30C627.7 29 600.3 32 573 32.5C545.7 33 518.3 31 491 31.5C463.7 32 436.3 35 409 35C381.7 35 354.3 32 327 31C299.7 30 272.3 31 245.2 30.5C218 30 191 28 163.8 29C136.7 30 109.3 34 82 36.5C54.7 39 27.3 40 13.7 40.5L0 41Z" fill="#7ac512"></path><path d="M0 187L13.7 189.5C27.3 192 54.7 197 82 196.5C109.3 196 136.7 190 163.8 187.5C191 185 218 186 245.2 187.5C272.3 189 299.7 191 327 185.5C354.3 180 381.7 167 409 167.5C436.3 168 463.7 182 491 190C518.3 198 545.7 200 573 196C600.3 192 627.7 182 654.8 181.5C682 181 709 190 736.2 188C763.3 186 790.7 173 818 172C845.3 171 872.7 182 886.3 187.5L900 193L900 98L886.3 94C872.7 90 845.3 82 818 83C790.7 84 763.3 94 736.2 93C709 92 682 80 654.8 76.5C627.7 73 600.3 78 573 78.5C545.7 79 518.3 75 491 74C463.7 73 436.3 75 409 80C381.7 85 354.3 93 327 95C299.7 97 272.3 93 245.2 90.5C218 88 191 87 163.8 87C136.7 87 109.3 88 82 87.5C54.7 87 27.3 85 13.7 84L0 83Z" fill="#a3bb00"></path><path d="M0 256L13.7 257C27.3 258 54.7 260 82 260.5C109.3 261 136.7 260 163.8 261C191 262 218 265 245.2 266C272.3 267 299.7 266 327 265.5C354.3 265 381.7 265 409 266C436.3 267 463.7 269 491 268.5C518.3 268 545.7 265 573 263C600.3 261 627.7 260 654.8 258.5C682 257 709 255 736.2 254.5C763.3 254 790.7 255 818 256.5C845.3 258 872.7 260 886.3 261L900 262L900 191L886.3 185.5C872.7 180 845.3 169 818 170C790.7 171 763.3 184 736.2 186C709 188 682 179 654.8 179.5C627.7 180 600.3 190 573 194C545.7 198 518.3 196 491 188C463.7 180 436.3 166 409 165.5C381.7 165 354.3 178 327 183.5C299.7 189 272.3 187 245.2 185.5C218 184 191 183 163.8 185.5C136.7 188 109.3 194 82 194.5C54.7 195 27.3 190 13.7 187.5L0 185Z" fill="#c2b004"></path><path d="M0 301L13.7 301C27.3 301 54.7 301 82 301C109.3 301 136.7 301 163.8 301C191 301 218 301 245.2 301C272.3 301 299.7 301 327 301C354.3 301 381.7 301 409 301C436.3 301 463.7 301 491 301C518.3 301 545.7 301 573 301C600.3 301 627.7 301 654.8 301C682 301 709 301 736.2 301C763.3 301 790.7 301 818 301C845.3 301 872.7 301 886.3 301L900 301L900 260L886.3 259C872.7 258 845.3 256 818 254.5C790.7 253 763.3 252 736.2 252.5C709 253 682 255 654.8 256.5C627.7 258 600.3 259 573 261C545.7 263 518.3 266 491 266.5C463.7 267 436.3 265 409 264C381.7 263 354.3 263 327 263.5C299.7 264 272.3 265 245.2 264C218 263 191 260 163.8 259C136.7 258 109.3 259 82 258.5C54.7 258 27.3 256 13.7 255L0 254Z" fill="#daa520"></path></svg>