<svg id="visual" viewBox="0 0 900 300" width="900" height="300" xmlns="http://www.w3.org/2000/svg" xmlns:xlink="http://www.w3.org/1999/xlink" version="1.1"><rect x="0" y="0" width="900" height="300" fill="#a52a2a"></rect><path d="M0 181L16.7 175C33.3 169 66.7 157 100 140.5C133.3 124 166.7 103 200 99C233.3 95 266.7 108 300 129C333.3 150 366.7 179 400 194.8C433.3 210.7 466.7 213.3 500 193.3C533.3 173.3 566.7 130.7 600 120.5C633.3 110.3 666.7 132.7 700 150.8C733.3 169 766.7 183 800 177C833.3 171 866.7 145 883.3 132L900 119L900 301L883.3 301C866.7 301 833.3 301 800 301C766.7 301 733.3 301 700 301C666.7 301 633.3 301 600 301C566.7 301 533.3 301 500 301C466.7 301 433.3 301 400 301C366.7 301 333.3 301 300 301C266.7 301 233.3 301 200 301C166.7 301 133.3 301 100 301C66.7 301 33.3 301 16.7 301L0 301Z" fill="#ff00ff" stroke-linecap="round" stroke-linejoin="miter"></path></svg>