<svg id="visual" viewBox="0 0 900 300" width="900" height="300" xmlns="http://www.w3.org/2000/svg" xmlns:xlink="http://www.w3.org/1999/xlink" version="1.1"><path d="M0 52L90 94L180 88L270 67L360 79L450 34L540 58L630 94L720 67L810 106L900 82L900 0L810 0L720 0L630 0L540 0L450 0L360 0L270 0L180 0L90 0L0 0Z" fill="#daa520"></path><path d="M0 109L90 142L180 148L270 154L360 151L450 136L540 109L630 142L720 133L810 148L900 121L900 80L810 104L720 65L630 92L540 56L450 32L360 77L270 65L180 86L90 92L0 50Z" fill="#d8951d"></path><path d="M0 148L90 172L180 187L270 187L360 190L450 157L540 157L630 169L720 154L810 166L900 151L900 119L810 146L720 131L630 140L540 107L450 134L360 149L270 152L180 146L90 140L0 107Z" fill="#d4861d"></path><path d="M0 160L90 199L180 196L270 196L360 211L450 166L540 172L630 181L720 166L810 181L900 163L900 149L810 164L720 152L630 167L540 155L450 155L360 188L270 185L180 185L90 170L0 146Z" fill="#cf761f"></path><path d="M0 175L90 229L180 208L270 226L360 223L450 196L540 184L630 199L720 187L810 208L900 190L900 161L810 179L720 164L630 179L540 170L450 164L360 209L270 194L180 194L90 197L0 158Z" fill="#c96721"></path><path d="M0 199L90 244L180 223L270 244L360 244L450 217L540 205L630 220L720 199L810 220L900 211L900 188L810 206L720 185L630 197L540 182L450 194L360 221L270 224L180 206L90 227L0 173Z" fill="#c25824"></path><path d="M0 217L90 268L180 241L270 253L360 256L450 226L540 226L630 238L720 229L810 247L900 223L900 209L810 218L720 197L630 218L540 203L450 215L360 242L270 242L180 221L90 242L0 197Z" fill="#b94926"></path><path d="M0 268L90 286L180 268L270 289L360 280L450 280L540 274L630 274L720 280L810 271L900 274L900 221L810 245L720 227L630 236L540 224L450 224L360 254L270 251L180 239L90 266L0 215Z" fill="#b03a28"></path><path d="M0 301L90 301L180 301L270 301L360 301L450 301L540 301L630 301L720 301L810 301L900 301L900 272L810 269L720 278L630 272L540 272L450 278L360 278L270 287L180 266L90 284L0 266Z" fill="#a52a2a"></path></svg>